<?xml version="1.0" encoding="utf-8"?>
<!-- Generator: Adobe Illustrator 23.0.3, SVG Export Plug-In . SVG Version: 6.00 Build 0)  -->
<svg version="1.1" id="GLSEN_x5F_Logo" xmlns="http://www.w3.org/2000/svg" xmlns:xlink="http://www.w3.org/1999/xlink" x="0px"
	 y="0px" viewBox="0 0 200 40.36" style="enable-background:new 0 0 200 40.36;" xml:space="preserve">
<style type="text/css">
	.st0{fill:#F2A900;}
	.st1{fill:#63666A;}
</style>
<g>
	<g>
		<polygon class="st0" points="114.05,39.42 114.05,1.04 145.69,1.04 145.69,12.26 128.13,12.26 128.13,15.73 140.82,15.73 
			140.82,24.78 128.13,24.78 128.13,28.19 145.69,28.19 145.69,39.42 		"/>
		<polygon class="st1" points="175,39.42 161.32,21.77 161.32,39.42 148.04,39.42 148.04,1.04 163.51,1.04 177.2,17.96 177.2,1.04 
			189.26,1.04 189.26,39.42 		"/>
		<polygon class="st1" points="41.57,39.42 41.57,1.04 55.65,1.04 55.65,27.51 73.19,27.51 73.19,39.42 		"/>
		<path class="st1" d="M94.72,40.36c-8.12,0-15.28-2.32-20.17-6.53l-0.26-0.22l7.37-8.64l0.27,0.2c3.84,2.88,8.47,4.41,13.39,4.41
			c1.98,0,2.98-0.43,2.98-1.3v-0.11c0-0.76-0.81-1.33-5.11-2.18c-3.94-0.79-8.39-1.86-11.58-3.81c-3.42-2.1-5.09-4.98-5.09-8.81
			v-0.11c0-3.8,1.51-7.06,4.35-9.43c2.99-2.49,7.31-3.8,12.49-3.8c7.45,0,13.1,1.69,17.76,5.31l0.26,0.2l-6.73,9.17l-0.28-0.2
			c-3.29-2.35-7.47-3.7-11.46-3.7c-0.75,0-2.48,0.12-2.48,1.24v0.11c0,0.75,0.82,1.36,4.88,2.12c5.76,1.04,9.51,2.28,12.16,4.01
			c3.18,2.08,4.73,4.91,4.73,8.66v0.11c0,4.03-1.66,7.4-4.8,9.75C104.34,39.14,99.95,40.36,94.72,40.36"/>
		<path class="st1" d="M21.69,40.33c-5.92,0-11.37-1.96-15.34-5.53C2.25,31.14,0,25.98,0,20.28v-0.11C0,8.67,9.16,0,21.31,0
			c6.25,0,11.68,1.96,16.14,5.84l0.24,0.21l-7.54,9.09l-0.25-0.22c-2.57-2.18-5.26-3.24-8.21-3.24c-4.75,0-8.21,3.63-8.21,8.64v0.11
			c0,5.15,3.6,8.75,8.75,8.75c1.81,0,3-0.22,4.02-0.74v-3.28h-6.52v-8.81h19.08v18.09l-0.12,0.1
			C34.12,38.28,28.08,40.33,21.69,40.33"/>
	</g>
	<g>
		<path class="st1" d="M197.88,6.76c-0.01-0.02-0.01-0.02-0.01-0.04l-0.01-0.05c-0.02-0.04-0.03-0.07-0.03-0.1
			c0-0.02-0.01-0.04-0.01-0.06c0-0.08-0.01-0.15-0.02-0.18c-0.04-0.68-0.13-1.01-0.3-1.13c-0.05-0.05-0.1-0.09-0.12-0.12
			c0.01-0.02,0.02-0.04,0.05-0.07c0.3-0.3,0.39-0.49,0.39-0.83c0-0.78-0.55-1.21-1.55-1.21h-1.91v3.99h1.06V5.47h0.6
			c0.6,0,0.68,0.08,0.73,0.81c0.02,0.35,0.04,0.47,0.15,0.62l0.03,0.04h1.01l-0.05-0.14C197.9,6.79,197.89,6.77,197.88,6.76z
			 M196.06,4.63h-0.64v-0.8h0.69c0.61,0,0.66,0.2,0.66,0.39C196.77,4.42,196.71,4.63,196.06,4.63z"/>
		<path class="st1" d="M196.04,1.08c-2.19,0-3.98,1.76-3.98,3.92c0,2.17,1.78,3.94,3.98,3.94c2.18,0,3.96-1.77,3.96-3.94
			C200,2.84,198.22,1.08,196.04,1.08z M196.04,7.94c-1.63,0-2.95-1.32-2.95-2.93c0-1.62,1.32-2.93,2.95-2.93
			c1.62,0,2.93,1.32,2.93,2.93C198.97,6.62,197.66,7.94,196.04,7.94z"/>
	</g>
</g>
</svg>
